<svg id="Group_7241" data-name="Group 7241" xmlns="http://www.w3.org/2000/svg" width="38" height="38" viewBox="0 0 38 38">
  <g id="Path_16676" data-name="Path 16676" fill="#fbca2e">
    <path d="M 33.47618865966797 37.75 L 4.523809909820557 37.75 C 2.167220115661621 37.75 0.25 35.83277893066406 0.25 33.47618865966797 L 0.25 4.523809909820557 C 0.25 2.167220115661621 2.167220115661621 0.25 4.523809909820557 0.25 L 33.47618865966797 0.25 C 35.83277893066406 0.25 37.75 2.167220115661621 37.75 4.523809909820557 L 37.75 33.47618865966797 C 37.75 35.83277893066406 35.83277893066406 37.75 33.47618865966797 37.75 Z" stroke="none"/>
    <path d="M 4.523811340332031 0.5 C 2.305068969726562 0.5 0.5 2.305068969726562 0.5 4.523811340332031 L 0.5 33.47618865966797 C 0.5 35.69493103027344 2.305068969726562 37.5 4.523811340332031 37.5 L 33.47618865966797 37.5 C 35.69493103027344 37.5 37.5 35.69493103027344 37.5 33.47618865966797 L 37.5 4.523811340332031 C 37.5 2.305068969726562 35.69493103027344 0.5 33.47618865966797 0.5 L 4.523811340332031 0.5 M 4.523811340332031 0 L 33.47618865966797 0 C 35.9746208190918 0 38 2.025379180908203 38 4.523811340332031 L 38 33.47618865966797 C 38 35.9746208190918 35.9746208190918 38 33.47618865966797 38 L 4.523811340332031 38 C 2.025379180908203 38 0 35.9746208190918 0 33.47618865966797 L 0 4.523811340332031 C 0 2.025379180908203 2.025379180908203 0 4.523811340332031 0 Z" stroke="none" fill="#fbca2e"/>
  </g>
  <path id="Polygon_8" data-name="Polygon 8" d="M9.5,0,19,16H0Z" transform="translate(28.913 27) rotate(180)" fill="#fff"/>
</svg>
